<mxfile host="app.diagrams.net" agent="Mozilla/5.0 (Macintosh; Intel Mac OS X 10_15_7) AppleWebKit/537.36 (KHTML, like Gecko) Chrome/116.0.0.0 Safari/537.36" version="26.1.0">
  <diagram name="Page-1" id="Nzlegv9YMgdjpvX-OwDT">
    <mxGraphModel dx="381" dy="248" grid="1" gridSize="10" guides="1" tooltips="1" connect="1" arrows="1" fold="1" page="1" pageScale="1" pageWidth="1600" pageHeight="900" background="none" math="0" shadow="0">
      <root>
        <mxCell id="0" />
        <mxCell id="1" parent="0" />
        <mxCell id="RCYQ_zxuRN4eoxhQyTuK-12" value="" style="ellipse;whiteSpace=wrap;html=1;fillColor=none;rotation=355;" parent="1" vertex="1">
          <mxGeometry x="470" y="120" width="880" height="710" as="geometry" />
        </mxCell>
        <mxCell id="RCYQ_zxuRN4eoxhQyTuK-1" value="" style="ellipse;whiteSpace=wrap;html=1;aspect=fixed;fillColor=light-dark(#007FFF,#28AB6A);" parent="1" vertex="1">
          <mxGeometry x="800" y="440" width="80" height="80" as="geometry" />
        </mxCell>
        <mxCell id="RCYQ_zxuRN4eoxhQyTuK-2" value="N" style="text;html=1;align=center;verticalAlign=middle;whiteSpace=wrap;rounded=0;" parent="1" vertex="1">
          <mxGeometry x="840" y="460" width="20" height="20" as="geometry" />
        </mxCell>
        <mxCell id="RCYQ_zxuRN4eoxhQyTuK-6" value="r=1" style="text;html=1;align=center;verticalAlign=middle;whiteSpace=wrap;rounded=0;" parent="1" vertex="1">
          <mxGeometry x="840" y="495" width="20" height="15" as="geometry" />
        </mxCell>
        <mxCell id="RCYQ_zxuRN4eoxhQyTuK-8" value="" style="endArrow=none;dashed=1;html=1;rounded=0;exitX=0.5;exitY=1;exitDx=0;exitDy=0;" parent="1" source="RCYQ_zxuRN4eoxhQyTuK-2" edge="1">
          <mxGeometry width="50" height="50" relative="1" as="geometry">
            <mxPoint x="870" y="490" as="sourcePoint" />
            <mxPoint x="900" y="480" as="targetPoint" />
          </mxGeometry>
        </mxCell>
        <mxCell id="RCYQ_zxuRN4eoxhQyTuK-9" value="" style="endArrow=none;dashed=1;html=1;rounded=0;entryX=0;entryY=0.5;entryDx=0;entryDy=0;" parent="1" target="RCYQ_zxuRN4eoxhQyTuK-1" edge="1">
          <mxGeometry width="50" height="50" relative="1" as="geometry">
            <mxPoint x="780" y="480" as="sourcePoint" />
            <mxPoint x="780" y="480" as="targetPoint" />
          </mxGeometry>
        </mxCell>
        <mxCell id="RCYQ_zxuRN4eoxhQyTuK-10" value="" style="endArrow=none;dashed=1;html=1;dashPattern=1 3;strokeWidth=1;rounded=0;entryX=0;entryY=1;entryDx=0;entryDy=0;exitX=1;exitY=1;exitDx=0;exitDy=0;" parent="1" source="RCYQ_zxuRN4eoxhQyTuK-1" target="RCYQ_zxuRN4eoxhQyTuK-2" edge="1">
          <mxGeometry width="50" height="50" relative="1" as="geometry">
            <mxPoint x="820" y="550" as="sourcePoint" />
            <mxPoint x="870" y="500" as="targetPoint" />
          </mxGeometry>
        </mxCell>
        <mxCell id="RCYQ_zxuRN4eoxhQyTuK-11" value="Earth" style="text;html=1;align=center;verticalAlign=middle;whiteSpace=wrap;rounded=0;" parent="1" vertex="1">
          <mxGeometry x="860" y="520" width="50" height="20" as="geometry" />
        </mxCell>
        <mxCell id="RCYQ_zxuRN4eoxhQyTuK-14" value="" style="endArrow=none;html=1;rounded=0;exitX=0.5;exitY=1;exitDx=0;exitDy=0;entryX=0.5;entryY=0;entryDx=0;entryDy=0;" parent="1" source="RCYQ_zxuRN4eoxhQyTuK-12" target="RCYQ_zxuRN4eoxhQyTuK-12" edge="1">
          <mxGeometry width="50" height="50" relative="1" as="geometry">
            <mxPoint x="590" y="790" as="sourcePoint" />
            <mxPoint x="640" y="740" as="targetPoint" />
            <Array as="points">
              <mxPoint x="910" y="480" />
            </Array>
          </mxGeometry>
        </mxCell>
        <mxCell id="RCYQ_zxuRN4eoxhQyTuK-15" value="" style="shape=waypoint;sketch=0;fillStyle=solid;size=6;pointerEvents=1;points=[];fillColor=none;resizable=0;rotatable=0;perimeter=centerPerimeter;snapToPoint=1;strokeColor=#FFD966;strokeWidth=4;" parent="1" vertex="1">
          <mxGeometry x="490" y="610" width="20" height="20" as="geometry" />
        </mxCell>
        <mxCell id="RCYQ_zxuRN4eoxhQyTuK-16" value="Sun" style="text;html=1;align=center;verticalAlign=middle;whiteSpace=wrap;rounded=0;" parent="1" vertex="1">
          <mxGeometry x="500" y="600" width="30" height="20" as="geometry" />
        </mxCell>
        <mxCell id="RCYQ_zxuRN4eoxhQyTuK-22" value="Perihelion 147.10 * 10^6 km - first week of January" style="text;html=1;align=center;verticalAlign=middle;whiteSpace=wrap;rounded=0;" parent="1" vertex="1">
          <mxGeometry x="310" y="500" width="160" height="30" as="geometry" />
        </mxCell>
        <mxCell id="RCYQ_zxuRN4eoxhQyTuK-24" value="Aphelion 152.10 * 10^6 km - first week of July" style="text;html=1;align=center;verticalAlign=middle;whiteSpace=wrap;rounded=0;" parent="1" vertex="1">
          <mxGeometry x="1350" y="420" width="170" height="30" as="geometry" />
        </mxCell>
        <mxCell id="RCYQ_zxuRN4eoxhQyTuK-25" value="" style="endArrow=none;html=1;rounded=0;exitX=0;exitY=0.5;exitDx=0;exitDy=0;" parent="1" source="RCYQ_zxuRN4eoxhQyTuK-27" edge="1">
          <mxGeometry width="50" height="50" relative="1" as="geometry">
            <mxPoint x="1240" y="480" as="sourcePoint" />
            <mxPoint x="900" y="480" as="targetPoint" />
          </mxGeometry>
        </mxCell>
        <mxCell id="RCYQ_zxuRN4eoxhQyTuK-26" value="" style="endArrow=none;html=1;rounded=0;exitX=1;exitY=0.5;exitDx=0;exitDy=0;" parent="1" source="RCYQ_zxuRN4eoxhQyTuK-28" edge="1">
          <mxGeometry width="50" height="50" relative="1" as="geometry">
            <mxPoint x="280" y="480" as="sourcePoint" />
            <mxPoint x="780" y="480" as="targetPoint" />
          </mxGeometry>
        </mxCell>
        <mxCell id="RCYQ_zxuRN4eoxhQyTuK-27" value="Northern solstice - 20/21 June" style="text;html=1;align=center;verticalAlign=middle;whiteSpace=wrap;rounded=0;" parent="1" vertex="1">
          <mxGeometry x="1400" y="465" width="180" height="30" as="geometry" />
        </mxCell>
        <mxCell id="RCYQ_zxuRN4eoxhQyTuK-28" value="Southern solstice - 21/22 December" style="text;html=1;align=center;verticalAlign=middle;whiteSpace=wrap;rounded=0;" parent="1" vertex="1">
          <mxGeometry x="190" y="465" width="210" height="30" as="geometry" />
        </mxCell>
        <mxCell id="RCYQ_zxuRN4eoxhQyTuK-29" value="" style="endArrow=none;html=1;rounded=0;entryX=0.5;entryY=1;entryDx=0;entryDy=0;exitX=0.5;exitY=0;exitDx=0;exitDy=0;" parent="1" source="RCYQ_zxuRN4eoxhQyTuK-30" target="RCYQ_zxuRN4eoxhQyTuK-1" edge="1">
          <mxGeometry width="50" height="50" relative="1" as="geometry">
            <mxPoint x="840" y="880" as="sourcePoint" />
            <mxPoint x="840" y="620" as="targetPoint" />
          </mxGeometry>
        </mxCell>
        <mxCell id="RCYQ_zxuRN4eoxhQyTuK-30" value="Northward equinox - 20 March" style="text;html=1;align=center;verticalAlign=middle;whiteSpace=wrap;rounded=0;" parent="1" vertex="1">
          <mxGeometry x="750" y="880" width="180" height="30" as="geometry" />
        </mxCell>
        <mxCell id="RCYQ_zxuRN4eoxhQyTuK-31" value="" style="shape=mxgraph.arrows2.wedgeArrow;html=1;bendable=0;startWidth=4.651162790697672;fillColor=strokeColor;defaultFillColor=invert;defaultGradientColor=invert;rounded=0;strokeWidth=1;entryX=0.038;entryY=0.698;entryDx=0;entryDy=0;entryPerimeter=0;" parent="1" edge="1">
          <mxGeometry width="100" height="100" relative="1" as="geometry">
            <mxPoint x="515" y="644" as="sourcePoint" />
            <mxPoint x="522.2394378592858" y="654.4790894292255" as="targetPoint" />
          </mxGeometry>
        </mxCell>
        <mxCell id="RCYQ_zxuRN4eoxhQyTuK-32" value="" style="endArrow=none;html=1;rounded=0;entryX=0.5;entryY=1;entryDx=0;entryDy=0;exitX=0.5;exitY=0;exitDx=0;exitDy=0;" parent="1" source="RCYQ_zxuRN4eoxhQyTuK-1" target="RCYQ_zxuRN4eoxhQyTuK-33" edge="1">
          <mxGeometry width="50" height="50" relative="1" as="geometry">
            <mxPoint x="840" y="420" as="sourcePoint" />
            <mxPoint x="840" y="60" as="targetPoint" />
          </mxGeometry>
        </mxCell>
        <mxCell id="RCYQ_zxuRN4eoxhQyTuK-33" value="Southward equinox - 22/23 September" style="text;html=1;align=center;verticalAlign=middle;whiteSpace=wrap;rounded=0;" parent="1" vertex="1">
          <mxGeometry x="730" y="20" width="220" height="30" as="geometry" />
        </mxCell>
        <mxCell id="RCYQ_zxuRN4eoxhQyTuK-34" value="" style="shape=waypoint;sketch=0;fillStyle=solid;size=6;pointerEvents=1;points=[];fillColor=none;resizable=0;rotatable=0;perimeter=centerPerimeter;snapToPoint=1;" parent="1" vertex="1">
          <mxGeometry x="970" y="460" width="20" height="20" as="geometry" />
        </mxCell>
        <mxCell id="RCYQ_zxuRN4eoxhQyTuK-35" value="Empty focus" style="text;html=1;align=center;verticalAlign=middle;whiteSpace=wrap;rounded=0;" parent="1" vertex="1">
          <mxGeometry x="950" y="435" width="60" height="30" as="geometry" />
        </mxCell>
        <mxCell id="RCYQ_zxuRN4eoxhQyTuK-37" value="&lt;span style=&quot;color: rgb(32, 33, 34); font-family: sans-serif; font-size: 16px; font-style: normal; font-variant-ligatures: normal; font-variant-caps: normal; font-weight: 400; letter-spacing: normal; orphans: 2; text-align: start; text-indent: 0px; text-transform: none; widows: 2; word-spacing: 0px; -webkit-text-stroke-width: 0px; white-space: nowrap; background-color: rgb(248, 249, 250); text-decoration-thickness: initial; text-decoration-style: initial; text-decoration-color: initial; display: inline !important; float: none;&quot;&gt;365.256 days&lt;/span&gt;" style="text;html=1;align=center;verticalAlign=middle;whiteSpace=wrap;rounded=0;" parent="1" vertex="1">
          <mxGeometry x="370" y="620" width="120" height="30" as="geometry" />
        </mxCell>
        <mxCell id="RCYQ_zxuRN4eoxhQyTuK-40" value="" style="endArrow=none;html=1;rounded=0;exitX=0;exitY=0.5;exitDx=0;exitDy=0;entryX=1;entryY=0.5;entryDx=0;entryDy=0;" parent="1" source="RCYQ_zxuRN4eoxhQyTuK-12" target="RCYQ_zxuRN4eoxhQyTuK-12" edge="1">
          <mxGeometry width="50" height="50" relative="1" as="geometry">
            <mxPoint x="472" y="513" as="sourcePoint" />
            <mxPoint x="1348" y="437" as="targetPoint" />
            <Array as="points" />
          </mxGeometry>
        </mxCell>
        <mxCell id="RCYQ_zxuRN4eoxhQyTuK-39" value="" style="verticalLabelPosition=bottom;verticalAlign=top;html=1;shape=mxgraph.basic.arc;startAngle=0.7341372412847231;endAngle=0.0020145119418312554;strokeWidth=2;" parent="1" vertex="1">
          <mxGeometry x="740" y="380" width="200" height="200" as="geometry" />
        </mxCell>
        <mxCell id="RCYQ_zxuRN4eoxhQyTuK-41" value="Longitude of perihelion 102.9°" style="text;html=1;align=center;verticalAlign=middle;whiteSpace=wrap;rounded=0;" parent="1" vertex="1">
          <mxGeometry x="680" y="370" width="120" height="30" as="geometry" />
        </mxCell>
        <mxCell id="RCYQ_zxuRN4eoxhQyTuK-43" value="" style="shape=waypoint;sketch=0;fillStyle=solid;size=6;pointerEvents=1;points=[];fillColor=none;resizable=0;rotatable=0;perimeter=centerPerimeter;snapToPoint=1;" parent="1" vertex="1">
          <mxGeometry x="830" y="470" width="20" height="20" as="geometry" />
        </mxCell>
      </root>
    </mxGraphModel>
  </diagram>
</mxfile>
